<svg id="Layer_1" data-name="Layer 1" xmlns="http://www.w3.org/2000/svg" viewBox="0 0 493.09 71.7"><title>make-it-rain-type</title><path d="M13.39,77H1.29L13.89,5.31h11.6l6.6,31v.11l.1-.21,17.6-30.9h11.7L49,77H36.89l6.8-38.5L48,23.81l-4.1,9.11-13.4,23.2h-3.1L22,33l-.8-9.3L20,38.92Z" transform="translate(-1.29 -5.31)"/><path d="M86.49,66.42H71.29L67.49,77H54.19L82.69,5.31h12.9L99.39,77H86.69Zm-11.1-11.3h10.8l-.5-23.91.8-9.7-2.4,9.7Z" transform="translate(-1.29 -5.31)"/><path d="M129,39l-6.7,9.1-5,28.9h-12.7l12.6-71.71h12.6l-4.4,25.3-.4,1.6,19.3-26.9H159l-19,25.9.3,1.8,7.2,44h-14L129,44.12Z" transform="translate(-1.29 -5.31)"/><path d="M187.09,77h-34.2l12.6-71.71H199L196.89,17h-20.7l-3.1,17.8h18.2l-2.1,11.81H171l-3.2,18.3h21.4Z" transform="translate(-1.29 -5.31)"/><path d="M212.78,77l2.1-12.2h8.4l8.4-47.51h-8.4l2.1-12h29.11l-2.1,12h-8.2l-8.41,47.51h8.31L242,77Z" transform="translate(-1.29 -5.31)"/><path d="M283.38,17.11,272.88,77H260l10.5-59.91h-11.9l2.1-11.8h36.6l-2.1,11.8Z" transform="translate(-1.29 -5.31)"/><path d="M329,49.62,324.18,77h-12.5l12.6-71.71h18.8c13.2,0,18.4,6.8,16.2,19.4L358,32c-1.1,6.61-4.1,10.31-10.5,11.91,5.6,2.1,6.7,6.3,5.5,13l-2.7,14.8c-.4,2.5-.1,4.2,1.2,5.3h-13.6c-1-.8-1-2.9-.6-5.4l2.6-14.6c.9-5-.4-7.4-5.8-7.4Zm5.9-33.31L331,38.22h5.3c6.3,0,8.4-2.3,9.4-7.81l1.1-6.6c1-5.3-1-7.5-6.2-7.5Z" transform="translate(-1.29 -5.31)"/><path d="M386.48,66.42h-15.2L367.48,77h-13.3l28.5-71.71h12.9L399.38,77h-12.7Zm-11.1-11.3h10.8l-.5-23.91.8-9.7-2.4,9.7Z" transform="translate(-1.29 -5.31)"/><path d="M403.78,77l2.1-12.2h8.4l8.4-47.51h-8.4l2.1-12h29.1l-2.1,12h-8.2l-8.4,47.51h8.3L433,77Z" transform="translate(-1.29 -5.31)"/><path d="M452.08,77h-11.8l12.6-71.71h11.5l9.5,41.41,1,7.4,1-10,6.8-38.81h11.7L481.88,77h-11.3l-9.7-41.81-1-8.1-1.1,11.31Z" transform="translate(-1.29 -5.31)"/></svg>