<?xml version="1.0" encoding="UTF-8"?>
<svg width="99.098" height="30.92" version="1.1" viewBox="0 0 26.22 8.1809" xmlns="http://www.w3.org/2000/svg" xmlns:cc="http://creativecommons.org/ns#" xmlns:dc="http://purl.org/dc/elements/1.1/" xmlns:rdf="http://www.w3.org/1999/02/22-rdf-syntax-ns#">
 <metadata>
  <rdf:RDF>
   <cc:Work rdf:about="">
    <dc:format>image/svg+xml</dc:format>
    <dc:type rdf:resource="http://purl.org/dc/dcmitype/StillImage"/>
    <dc:title/>
   </cc:Work>
  </rdf:RDF>
 </metadata>
 <g transform="translate(-28.94 -59.882)">
  <g stroke-width=".26458" aria-label="On Fire">
   <path d="m30.97 68.063c1.4605 0 2.0955-0.77258 2.3812-2.3389l0.51858-2.9422c0.28575-1.7145-0.5715-2.5188-1.9262-2.5188-1.2594 0-2.1272 0.60325-2.4342 2.3389l-0.508 2.9104c-0.26458 1.4922 0.30692 2.5506 1.9685 2.5506zm0.0635-1.27c-0.49742 0-0.79375-0.28575-0.635-1.1536l0.53975-3.0268c0.14817-0.8255 0.41275-1.1324 0.93133-1.1324 0.51858 0 0.75142 0.32808 0.62442 1.1112l-0.55033 3.0903c-0.14817 0.83608-0.41275 1.1112-0.91017 1.1112z"/>
   <path d="m35.894 63.861c0.10583-0.59267 0.32808-0.9525 0.79375-0.9525 0.47625 0 0.5715 0.33867 0.48683 0.87842l-0.73025 4.1592h1.3652l0.762-4.3603c0.22225-1.2488-0.28575-1.8627-1.2065-1.8627-0.62442 0-1.0795 0.33867-1.3652 0.94192l0.01058-0.86783h-1.1218l-1.0795 6.1489h1.3652z"/>
   <path d="m44.636 64.909 0.22225-1.27h-1.8627l0.34925-2.0108h2.032l0.22225-1.27h-3.3761l-1.3335 7.5882h1.3441l0.52917-3.0374z"/>
   <path d="m46.834 61.448c0.56092 0 0.79375-0.16933 0.89958-0.77258 0.10583-0.59267-0.11642-0.79375-0.67733-0.79375-0.5715 0-0.80433 0.16933-0.91017 0.77258-0.10583 0.58208 0.08467 0.79375 0.68792 0.79375zm-1.8838 6.4982h1.3864l1.0795-6.1277c-0.08467 0.05292-0.46567 0.09525-0.6985 0.09525-0.22225 0-0.61383-0.03175-0.68792-0.09525z"/>
   <path d="m48.558 67.946 0.62442-3.5772c0.14817-0.83608 0.35983-1.1112 1.143-1.1112h0.37042l0.26458-1.524h-0.20108c-0.85725 0-1.2277 0.28575-1.4605 1.1853l-0.01058-1.1218h-0.98425l-1.0795 6.1489z"/>
   <path d="m52.355 63.861c0.11642-0.67733 0.34925-1.0054 0.85725-1.0054 0.51858 0 0.74083 0.3175 0.60325 1.0372l-0.08467 0.43392h-1.4605zm2.3389 2.3918 0.08467-0.43392h-1.3547l-0.03175 0.1905c-0.09525 0.5715-0.28575 0.86783-0.79375 0.86783-0.53975 0-0.71967-0.3175-0.59267-1.0266l0.10583-0.59267h2.7728l0.22225-1.2912c0.254-1.4182-0.42333-2.2542-1.8415-2.2542-1.1853 0-1.9685 0.70908-2.1802 1.9156l-0.37042 2.1061c-0.23283 1.3652 0.24342 2.3178 1.8098 2.3178 1.27 0 1.9262-0.5715 2.1696-1.7992z"/>
  </g>
 </g>
</svg>
