<?xml version="1.0" encoding="utf-8"?>
<!-- Generator: Adobe Illustrator 22.1.0, SVG Export Plug-In . SVG Version: 6.00 Build 0)  -->
<svg version="1.1" id="Layer_1" xmlns="http://www.w3.org/2000/svg" xmlns:xlink="http://www.w3.org/1999/xlink" x="0px" y="0px"
	 viewBox="0 0 775.1 71.7" style="enable-background:new 0 0 775.1 71.7;" xml:space="preserve">
<g>
	<path d="M3.3,47.8l4.3-24.7c2.6-14.8,10-19.9,20.7-19.9c11.5,0,18.8,6.8,16.4,21.4l-4.4,25c-2.4,13.3-7.8,19.9-20.2,19.9
		C5.9,69.5,1.1,60.5,3.3,47.8z M28.4,49.2L33,23c1.1-6.7-0.9-9.4-5.3-9.4s-6.7,2.6-7.9,9.6l-4.6,25.7c-1.3,7.4,1.2,9.8,5.4,9.8
		S27.1,56.4,28.4,49.2z"/>
	<path d="M55.1,68.5H44.5L55.8,4h10.3l8.5,37.3l0.9,6.7l0.9-9L82.6,4h10.5L81.9,68.5H71.7L63,30.9l-0.9-7.3l-1,10.2L55.1,68.5z"/>
	<path d="M124.5,42.7L120,68.5h-11.4L119.9,4h28.7l-1.9,10.8h-17.3l-3,17.1h15.8l-1.9,10.8H124.5z"/>
	<path d="M142.9,68.5l1.9-11h7.6l7.6-42.7h-7.6L154.3,4h26.2l-1.9,10.8h-7.4l-7.6,42.7h7.5l-1.9,11H142.9z"/>
	<path d="M191.3,43.8L187,68.5h-11.2L187.1,4H204c11.9,0,16.6,6.1,14.6,17.5l-1.2,6.6c-1,5.9-3.7,9.3-9.4,10.7c5,1.9,6,5.7,5,11.7
		l-2.4,13.3c-0.4,2.2-0.1,3.8,1.1,4.8h-12.2c-0.9-0.7-0.9-2.6-0.5-4.9l2.3-13.1c0.8-4.5-0.4-6.7-5.2-6.7H191.3z M196.7,13.9
		l-3.5,19.7h4.8c5.7,0,7.6-2.1,8.5-7l1-5.9c0.9-4.8-0.9-6.8-5.6-6.8H196.7z"/>
	<path d="M248.3,68.5h-30.8L228.9,4H259l-1.9,10.5h-18.6l-2.8,16h16.4l-1.9,10.6h-16.4l-2.9,16.5h19.3L248.3,68.5z"/>
</g>
</svg>
