<?xml version="1.0" encoding="utf-8"?>
<!-- Generator: Adobe Illustrator 22.1.0, SVG Export Plug-In . SVG Version: 6.00 Build 0)  -->
<svg version="1.1" id="Layer_1" xmlns="http://www.w3.org/2000/svg" xmlns:xlink="http://www.w3.org/1999/xlink" x="0px" y="0px"
	 viewBox="0 0 348.1 71.7" style="enable-background:new 0 0 348.1 71.7;" xml:space="preserve">
<g>
	<path d="M3.5,51.4l1.3-7.2h12l-1.3,7.6c-0.9,5.2,1.1,7.4,5.1,7.4c4.3,0,5.9-2.5,6.5-6.1l0.4-2.3c1.1-6.1-3.4-8.8-8.2-11.9
		c-5.5-3.5-11.5-7.6-9.7-18.4l0.5-2.6C11.8,7.7,18.7,3,28.3,3c12,0,17.4,6.7,15.7,16.6l-1.1,6.2H31.3l1.2-6.5
		c0.8-4.4-0.8-6.7-4.8-6.7c-3.5,0-5.4,2.2-6.1,6l-0.4,2.1c-1.1,5.6,2.8,7.8,8.3,11.4c5.6,3.6,11.4,7.8,9.7,18l-0.5,3.1
		c-2,11.1-7.2,16.3-19,16.3C6.4,69.5,1.3,62.7,3.5,51.4z"/>
	<path d="M71,41.7H58.6l-4.7,26.8H42.3L53.7,4h11.6l-4.7,26.6H73L77.7,4h11.6L78,68.5H66.4L71,41.7z"/>
	<path d="M88.9,47.8l4.3-24.7c2.6-14.8,10-19.9,20.7-19.9c11.5,0,18.8,6.8,16.4,21.4l-4.4,25c-2.4,13.3-7.8,19.9-20.2,19.9
		C91.6,69.5,86.7,60.5,88.9,47.8z M114,49.2l4.7-26.3c1.1-6.7-0.9-9.4-5.3-9.4c-4.4,0-6.7,2.6-7.9,9.6l-4.6,25.7
		c-1.3,7.4,1.2,9.8,5.4,9.8S112.7,56.4,114,49.2z"/>
	<path d="M145.1,48.3l-3.6,20.2h-11.4L141.4,4h16.8c12.2,0,16.8,7,15,17.9l-2,10.7c-1.9,10.4-7.9,15.7-20.9,15.7H145.1z M151.1,13.9
		l-4.2,24.2h4.5c5,0,7.8-2.2,8.7-7.6l1.6-9.5c0.8-4.7-1-7-5.7-7H151.1z"/>
	<path d="M200.5,68.5h-10.6L201.2,4h10.3l8.5,37.3l0.9,6.7l0.9-9L228,4h10.5l-11.2,64.5h-10.2l-8.7-37.6l-0.9-7.3l-1,10.2
		L200.5,68.5z"/>
	<path d="M238.3,47.8l4.3-24.7c2.6-14.8,10-19.9,20.7-19.9c11.5,0,18.8,6.8,16.4,21.4l-4.4,25c-2.4,13.3-7.8,19.9-20.2,19.9
		C240.9,69.5,236,60.5,238.3,47.8z M263.3,49.2L268,23c1.1-6.7-0.9-9.4-5.3-9.4s-6.7,2.6-7.9,9.6l-4.6,25.7
		c-1.3,7.4,1.2,9.8,5.4,9.8S262,56.4,263.3,49.2z"/>
	<path d="M296.5,68.5h-10.7L286.9,4H298l-1.3,35.9L295,51.5l3.1-10.9L311.9,4h7.7l0.5,36.6L319.2,52l2.9-12.1L333.9,4h11.2
		l-22.6,64.5h-10.7l-0.4-35.9l1.1-9.9l-2.4,9.9L296.5,68.5z"/>
</g>
</svg>
