<?xml version="1.0" encoding="utf-8"?>
<!-- Generator: Adobe Illustrator 22.1.0, SVG Export Plug-In . SVG Version: 6.00 Build 0)  -->
<svg version="1.1" id="Layer_1" xmlns="http://www.w3.org/2000/svg" xmlns:xlink="http://www.w3.org/1999/xlink" x="0px" y="0px"
	 viewBox="0 0 438.1 115.7" style="enable-background:new 0 0 438.1 115.7;" xml:space="preserve">
<path d="M424,115H13c-6.6,0-12-5.4-12-12V14C1,7.4,6.4,2,13,2h411c6.6,0,12,5.4,12,12v89C436,109.6,430.6,115,424,115z"/>
<g>
	<path style="fill:#FFFFFF;" d="M48.5,73.4l1.3-7.2h12l-1.3,7.6c-0.9,5.2,1.1,7.4,5.1,7.4c4.3,0,5.9-2.5,6.5-6.1l0.4-2.3
		c1.1-6.1-3.4-8.8-8.2-11.9c-5.5-3.5-11.5-7.6-9.7-18.4l0.5-2.6C56.8,29.7,63.7,25,73.3,25c12,0,17.4,6.7,15.7,16.6l-1.1,6.2H76.3
		l1.2-6.5c0.8-4.4-0.8-6.7-4.8-6.7c-3.5,0-5.4,2.2-6.1,6l-0.4,2.1c-1.1,5.6,2.8,7.8,8.3,11.4c5.6,3.6,11.4,7.8,9.7,18l-0.5,3.1
		c-2,11.1-7.2,16.3-19,16.3C51.4,91.5,46.3,84.7,48.5,73.4z"/>
	<path style="fill:#FFFFFF;" d="M116,63.7h-12.4l-4.7,26.8H87.3L98.7,26h11.6l-4.7,26.6H118l4.7-26.6h11.6L123,90.5h-11.6L116,63.7z
		"/>
	<path style="fill:#FFFFFF;" d="M133.9,69.8l4.3-24.7c2.6-14.8,10-19.9,20.7-19.9c11.5,0,18.8,6.8,16.4,21.4l-4.4,25
		c-2.4,13.3-7.8,19.9-20.2,19.9C136.6,91.5,131.7,82.5,133.9,69.8z M159,71.2l4.7-26.3c1.1-6.7-0.9-9.4-5.3-9.4
		c-4.4,0-6.7,2.6-7.9,9.6l-4.6,25.7c-1.3,7.4,1.2,9.8,5.4,9.8C155.5,80.6,157.7,78.4,159,71.2z"/>
	<path style="fill:#FFFFFF;" d="M190.1,70.3l-3.6,20.2h-11.4L186.4,26h16.8c12.2,0,16.8,7,15,17.9l-2,10.7
		c-1.9,10.4-7.9,15.7-20.9,15.7H190.1z M196.1,35.9l-4.2,24.2h4.5c5,0,7.8-2.2,8.7-7.6l1.6-9.5c0.8-4.7-1-7-5.7-7L196.1,35.9
		L196.1,35.9z"/>
	<path style="fill:#FFFFFF;" d="M245.5,90.5h-10.6L246.2,26h10.3l8.5,37.3l0.9,6.7l0.9-9l6.2-35h10.5l-11.2,64.5h-10.2l-8.7-37.6
		l-0.9-7.3l-1,10.2L245.5,90.5z"/>
	<path style="fill:#FFFFFF;" d="M283.3,69.8l4.3-24.7c2.6-14.8,10-19.9,20.7-19.9c11.5,0,18.8,6.8,16.4,21.4l-4.4,25
		c-2.4,13.3-7.8,19.9-20.2,19.9C285.9,91.5,281,82.5,283.3,69.8z M308.3,71.2L313,45c1.1-6.7-0.9-9.4-5.3-9.4s-6.7,2.6-7.9,9.6
		l-4.6,25.7c-1.3,7.4,1.2,9.8,5.4,9.8S307,78.4,308.3,71.2z"/>
	<path style="fill:#FFFFFF;" d="M341.5,90.5h-10.7l1.1-64.5H343l-1.3,35.9L340,73.5l3.1-10.9L356.9,26h7.7l0.5,36.6L364.2,74
		l2.9-12.1L378.9,26h11.2l-22.6,64.5h-10.7l-0.4-35.9l1.1-9.9l-2.4,9.9L341.5,90.5z"/>
</g>
</svg>
