<?xml version="1.0" encoding="utf-8"?>
<!-- Generator: Adobe Illustrator 22.1.0, SVG Export Plug-In . SVG Version: 6.00 Build 0)  -->
<svg version="1.1" id="Layer_1" xmlns="http://www.w3.org/2000/svg" xmlns:xlink="http://www.w3.org/1999/xlink" x="0px" y="0px"
	 viewBox="0 0 775.1 71.7" style="enable-background:new 0 0 775.1 71.7;" xml:space="preserve">
<g>
	<path d="M2.5,51.4l1.3-7.2h12l-1.3,7.6c-0.9,5.2,1.1,7.4,5.1,7.4c4.3,0,5.9-2.5,6.5-6.1l0.4-2.3c1.1-6.1-3.4-8.8-8.2-11.9
		c-5.5-3.5-11.5-7.6-9.7-18.4l0.5-2.6C10.8,7.7,17.7,3,27.3,3c12,0,17.4,6.7,15.7,16.6l-1.1,6.2H30.3l1.2-6.5
		c0.8-4.4-0.8-6.7-4.8-6.7c-3.5,0-5.4,2.2-6.1,6l-0.4,2.1c-1.1,5.6,2.8,7.8,8.3,11.4c5.6,3.6,11.4,7.8,9.7,18l-0.5,3.1
		c-2,11.1-7.2,16.3-19,16.3C5.4,69.5,0.3,62.7,2.5,51.4z"/>
	<path d="M69.2,14.6l-9.4,53.9H48.2l9.4-53.9H46.9L48.8,4h32.9l-1.9,10.6H69.2z"/>
	<path d="M75.9,68.5l1.9-11h7.6L93,14.8h-7.6L87.2,4h26.2l-1.9,10.8h-7.4l-7.6,42.7h7.5l-1.9,11H75.9z"/>
	<path d="M108.7,68.5L120.1,4H132l-9.3,52.9H140l-2,11.6H108.7z"/>
	<path d="M144.3,68.5L155.6,4h11.9l-9.3,52.9h17.3l-2,11.6H144.3z"/>
	<path d="M216.3,68.5h-10.7L206.7,4h11.1l-1.3,35.9l-1.6,11.6l3.1-10.9L231.7,4h7.7l0.5,36.6L239,52l2.9-12.1L253.7,4H265
		l-22.6,64.5h-10.7l-0.4-35.9l1.1-9.9l-2.4,9.9L216.3,68.5z"/>
	<path d="M279.6,59h-13.7l-3.4,9.5h-12L276.1,4h11.6l3.4,64.5h-11.4L279.6,59z M269.6,48.8h9.7l-0.5-21.5l0.7-8.7l-2.2,8.7
		L269.6,48.8z"/>
	<path d="M318.6,14.6l-9.4,53.9h-11.6l9.4-53.9h-10.7L298.2,4h32.9l-1.9,10.6H318.6z"/>
	<path d="M356.4,68.5h-30.8L337,4h30.1l-1.9,10.5h-18.6l-2.8,16h16.4l-1.9,10.6h-16.4L339,57.6h19.3L356.4,68.5z"/>
	<path d="M377.8,43.8l-4.3,24.7h-11.2L373.6,4h16.9c11.9,0,16.6,6.1,14.6,17.5l-1.2,6.6c-1,5.9-3.7,9.3-9.5,10.7c5,1.9,6,5.7,5,11.7
		L397,63.7c-0.4,2.2-0.1,3.8,1.1,4.8h-12.2c-0.9-0.7-0.9-2.6-0.5-4.9l2.3-13.1c0.8-4.5-0.4-6.7-5.2-6.7H377.8z M383.1,13.9
		l-3.5,19.7h4.8c5.7,0,7.6-2.1,8.5-7l1-5.9c0.9-4.8-0.9-6.8-5.6-6.8C388.3,13.9,383.1,13.9,383.1,13.9z"/>
	<path d="M405.1,51.4l1.3-7.2h12l-1.3,7.6c-0.9,5.2,1.1,7.4,5.1,7.4c4.3,0,5.8-2.5,6.5-6.1l0.5-2.3c1.1-6.1-3.4-8.8-8.2-11.9
		c-5.5-3.5-11.5-7.6-9.7-18.4l0.4-2.6C413.5,7.7,420.3,3,429.9,3c12,0,17.4,6.7,15.7,16.6l-1.1,6.2H433l1.2-6.5
		c0.8-4.4-0.8-6.7-4.8-6.7c-3.5,0-5.4,2.2-6.1,6l-0.4,2.1c-1.1,5.6,2.8,7.8,8.3,11.4c5.6,3.6,11.4,7.8,9.7,18l-0.5,3.1
		c-2,11.1-7.2,16.3-19,16.3C408.1,69.5,402.9,62.7,405.1,51.4z"/>
	<path d="M478,43.8l-4.3,24.7h-11.2L473.8,4h16.9c11.9,0,16.6,6.1,14.6,17.5l-1.2,6.6c-1,5.9-3.7,9.3-9.5,10.7c5,1.9,6,5.7,5,11.7
		l-2.4,13.3c-0.4,2.2-0.1,3.8,1.1,4.8H486c-0.9-0.7-0.9-2.6-0.5-4.9l2.3-13.1c0.8-4.5-0.4-6.7-5.2-6.7L478,43.8L478,43.8z
		 M483.3,13.9l-3.5,19.7h4.8c5.7,0,7.6-2.1,8.5-7l1-5.9c0.9-4.8-0.9-6.8-5.6-6.8C488.5,13.9,483.3,13.9,483.3,13.9z"/>
	<path d="M507.2,47.4L514.9,4h11.8l-7.9,44.9c-1.3,7.2,0.5,9.3,4.4,9.3s6-1.8,7.2-8.9l8-45.3h11.7L542,50.1
		c-2.3,13.5-7.5,19.4-19.5,19.4C508.7,69.5,504.8,61.3,507.2,47.4z"/>
	<path d="M557.3,68.5h-10.6L558,4h10.3l8.5,37.3l0.9,6.7l0.9-9l6.2-35h10.5l-11.2,64.5h-10.2l-8.7-37.6l-0.9-7.3l-1,10.2L557.3,68.5
		z"/>
	<path d="M622.1,4h16.1c11.7,0,18.6,8.1,16,22.1l-4,23.2C647.9,62.6,640,68.5,628,68.5h-17.2L622.1,4z M632,14l-7.8,44.3h4.4
		c5,0,8.5-3,9.7-10l4.3-24.3c1.2-6.5-1.1-10-6.4-10H632z"/>
	<path d="M685,68.5h-30.8L665.6,4h30.1l-1.9,10.5h-18.6l-2.8,16h16.4l-1.9,10.6h-16.4l-2.9,16.5h19.3L685,68.5z"/>
	<path d="M721.6,68.5h-30.8L702.2,4h30.1l-1.9,10.5h-18.6l-2.8,16h16.4l-1.9,10.6h-16.4l-2.9,16.5h19.3L721.6,68.5z"/>
	<path d="M742.5,48.3l-3.6,20.2h-11.4L738.8,4h16.8c12.2,0,16.8,7,15,17.9l-2,10.7c-1.9,10.4-7.9,15.7-20.9,15.7H742.5z M748.5,13.9
		l-4.2,24.2h4.5c5,0,7.8-2.2,8.7-7.6l1.6-9.5c0.8-4.7-1-7-5.7-7L748.5,13.9L748.5,13.9z"/>
</g>
</svg>
