<?xml version="1.0" encoding="utf-8"?>
<!-- Generator: Adobe Illustrator 22.1.0, SVG Export Plug-In . SVG Version: 6.00 Build 0)  -->
<svg version="1.1" id="Layer_1" xmlns="http://www.w3.org/2000/svg" xmlns:xlink="http://www.w3.org/1999/xlink" x="0px" y="0px"
	 viewBox="0 0 775.1 71.7" style="enable-background:new 0 0 775.1 71.7;" xml:space="preserve">
<g>
	<path d="M6.7,68.5L3.6,4h11.6l1,38.5l-1,9.2l2.2-9.2L31.7,4h12L18.4,68.5H6.7z"/>
	<path d="M68.2,68.5H37.4L48.7,4h30.1L77,14.5H58.4l-2.8,16H72l-1.9,10.6H53.7l-2.9,16.5h19.3L68.2,68.5z"/>
	<path d="M104.6,14.6l-9.4,53.9H83.6L93,14.6H82.3L84.2,4h32.9l-1.9,10.6H104.6z"/>
	<path d="M142.4,68.5h-30.8L123,4h30.1l-1.9,10.5h-18.6l-2.8,16h16.4l-1.9,10.6h-16.4L125,57.6h19.3L142.4,68.5z"/>
	<path d="M163.8,43.8l-4.3,24.7h-11.2L159.6,4h16.9c11.9,0,16.6,6.1,14.6,17.5l-1.2,6.6c-1,5.9-3.7,9.3-9.4,10.7c5,1.9,6,5.7,5,11.7
		L183,63.7c-0.4,2.2-0.1,3.8,1.1,4.8h-12.2c-0.9-0.7-0.9-2.6-0.5-4.9l2.3-13.1c0.8-4.5-0.4-6.7-5.2-6.7H163.8z M169.2,13.9
		l-3.5,19.7h4.8c5.7,0,7.6-2.1,8.5-7l1-5.9c0.9-4.8-0.9-6.8-5.6-6.8C174.4,13.9,169.2,13.9,169.2,13.9z"/>
	<path d="M215.6,59h-13.7l-3.4,9.5h-12L212.2,4h11.6l3.4,64.5h-11.4L215.6,59z M205.6,48.8h9.7l-0.4-21.5l0.7-8.7l-2.2,8.7
		L205.6,48.8z"/>
	<path d="M242.5,68.5h-10.6L243.2,4h10.3l8.5,37.3l0.9,6.7l0.9-9L270,4h10.5l-11.2,64.5h-10.2l-8.7-37.6l-0.9-7.3l-1,10.2
		L242.5,68.5z"/>
	<path d="M286.4,21.6c3.2-0.4,5.3-1.9,6.3-4.9c-0.3,0.1-0.5,0.1-0.8,0.1c-3.3,0-5.1-1.3-4.2-6.6c1-5.1,2.7-6.9,7.2-6.9
		s6.5,2,5.2,8.8c-1.7,9-6.3,14.1-14.6,14.8L286.4,21.6z"/>
	<path d="M299,51.4l1.3-7.2h12l-1.3,7.6c-0.9,5.2,1.1,7.4,5.1,7.4c4.3,0,5.9-2.5,6.5-6.1l0.4-2.3c1.1-6.1-3.4-8.8-8.2-11.9
		c-5.5-3.5-11.5-7.6-9.7-18.4l0.5-2.6C307.4,7.7,314.2,3,323.9,3c12,0,17.4,6.7,15.7,16.6l-1.1,6.2H327l1.2-6.5
		c0.8-4.4-0.8-6.7-4.8-6.7c-3.5,0-5.4,2.2-6.1,6l-0.4,2.1c-1.1,5.6,2.8,7.8,8.3,11.4c5.6,3.6,11.4,7.8,9.7,18l-0.5,3.1
		c-2,11.1-7.2,16.3-19,16.3C302,69.5,296.9,62.7,299,51.4z"/>
	<path d="M367.7,4h16.1c11.7,0,18.6,8.1,16,22.1l-4,23.2c-2.3,13.3-10.2,19.2-22.2,19.2h-17.2L367.7,4z M377.6,14l-7.8,44.3h4.4
		c4.9,0,8.5-3,9.7-10l4.3-24.3c1.2-6.5-1.1-10-6.4-10H377.6z"/>
	<path d="M424.8,59h-13.7l-3.4,9.5h-12L421.4,4H433l3.4,64.5H425L424.8,59z M414.8,48.8h9.7L424,27.3l0.7-8.7l-2.2,8.7L414.8,48.8z"
		/>
	<path d="M444.7,68.5l4-23.1L442.9,4h12l2.4,22.9l-0.3,6.5l2-6.6l10.5-22.7L481.6,4l-20.8,41.3l-4,23.2H444.7z"/>
</g>
</svg>
